PathFileType	4	(X/Y/Z)	Run_200 02
DataRate	CameraRate	NumFrames	NumMarkers	Units	OrigDataRate	OrigDataStartFrame	OrigNumFrames
120	120	4	42	mm	120	220	128
Frame#	Time	LASI			RASI			LPSI			RPSI			RTH1			RTH2			RTH3			LTH1			LTH2			LTH3			RTB1			RTB2			RTB3			LTB1			LTB2			LTB3			RCAL			RTOE			RMT5			LCAL			LTOE			LMT5			LACR			RACR			CLAV			C7			RUA1			RUA2			RUA3			RLEL			RMEL			LUA1			LUA2			LUA3			LLEL			LMEL			RFAsuperior			RFAradius			RFAulna			LFAsuperior			LFAradius			LFAulna			
		X1	Y1	Z1	X2	Y2	Z2	X3	Y3	Z3	X4	Y4	Z4	X5	Y5	Z5	X6	Y6	Z6	X7	Y7	Z7	X8	Y8	Z8	X9	Y9	Z9	X10	Y10	Z10	X11	Y11	Z11	X12	Y12	Z12	X13	Y13	Z13	X14	Y14	Z14	X15	Y15	Z15	X16	Y16	Z16	X17	Y17	Z17	X18	Y18	Z18	X19	Y19	Z19	X20	Y20	Z20	X21	Y21	Z21	X22	Y22	Z22	X23	Y23	Z23	X24	Y24	Z24	X25	Y25	Z25	X26	Y26	Z26	X27	Y27	Z27	X28	Y28	Z28	X29	Y29	Z29	X30	Y30	Z30	X31	Y31	Z31	X32	Y32	Z32	X33	Y33	Z33	X34	Y34	Z34	X35	Y35	Z35	X36	Y36	Z36	X37	Y37	Z37	X38	Y38	Z38	X39	Y39	Z39	X40	Y40	Z40	X41	Y41	Z41	X42	Y42	Z42	

220	1.958333	904.361362	1032.490406	-449.368118	866.067407	1056.416748	-190.016934	713.6034540000001	1071.080826	-389.183635	700.038057	1072.844369	-309.892081	809.717746	886.930385	-141.590099	877.042641	784.548288	-144.848603	826.568936	663.0641450000001	-187.864636	901.254473	825.120863	-494.059859	1000.831618	731.57883	-475.782737	972.573856	610.490189	-461.623501	880.216394	373.520766	-277.807085	837.615865	312.297317	-216.056316	809.219642	223.300778	-291.885799	946.501719	416.445961	-407.6198	862.191659	396.65322	-468.03832	771.786028	317.312526	-419.051499	636.138785	107.55506	-319.58017	868.491681	69.068175	-332.503297	796.309668	48.079669	-237.375424	590.5648179999999	329.354635	-415.113635	727.0644160000001	137.969795	-418.636401	662.658186	183.67891	-503.786321	917.237302	1500.042362	-502.444563	900.312664	1506.19215	-154.065281	951.875594	1447.462375	-291.812552	834.42948	1549.479266	-328.024033	879.769157	1403.397261	-73.92608799999999	876.820902	1312.98237	-71.086866	808.479411	1312.514673	-32.932347	797.406284	1183.656683	28.471446	758.563893	1164.325139	-43.328916	883.268959	1410.206592	-575.476219	874.737196	1337.975768	-568.307642	777.340594	1350.702229	-575.05961	737.209934	1197.771616	-637.899684	685.173621	1197.160466	-566.949327	902.4368009999999	1155.224129	6.132859	1038.931139	1122.409803	-104.783648	1032.543321	1070.150665	-52.901416	822.939493	1154.913429	-606.617838	941.727032	1093.962067	-477.429704	930.303014	1041.922588	-525.430258	
221	1.966667	903.929393	1035.689695	-448.489699	864.1879280000001	1057.635054	-189.212289	712.964697	1074.905544	-389.802616	699.2250739999999	1076.547525	-310.380019	805.09054	888.621582	-142.520128	870.052051	784.915309	-145.935077	816.6890990000001	664.614885	-189.049992	903.096667	829.937412	-494.53723	1004.750779	738.5271760000001	-475.584822	979.089742	617.2723109999999	-461.835961	865.806989	373.300541	-278.752839	822.377394	312.620246	-217.104856	793.577311	223.549318	-292.726697	958.538234	419.683442	-407.331839	875.088921	397.382928	-467.517983	788.105726	314.423006	-418.488717	619.817778	108.454877	-320.051486	851.835774	68.74982900000001	-332.59376	779.491031	48.148916	-237.685281	606.317886	318.476387	-414.896432	751.259768	133.454249	-418.246959	685.069318	176.027307	-503.31878	914.890594	1503.647957	-502.680062	901.517542	1511.12259	-154.780173	951.73925	1451.077119	-292.516075	833.801692	1552.576377	-327.637652	881.977429	1408.689361	-74.28957200000001	881.909173	1317.845524	-72.19441399999999	814.882796	1315.920337	-31.742051	805.973253	1186.239377	27.597526	766.442066	1166.877924	-44.174832	879.447649	1414.935198	-576.205573	869.494635	1343.078242	-569.405752	772.029664	1357.996914	-575.090074	728.783724	1206.142431	-639.105311	677.338898	1205.866538	-567.774521	911.727635	1162.960678	3.309147	1047.33533	1137.59385	-110.349638	1044.499675	1084.645655	-58.857576	814.759467	1164.111323	-608.484132	934.549236	1103.302216	-481.171222	921.72156	1050.012076	-527.299303	
222	1.975	903.5306859999999	1039.334389	-447.718399	862.789487	1059.141601	-188.565924	712.497968	1079.264383	-390.044056	698.572527	1080.737025	-310.435269	800.307603	890.540814	-143.724476	863.3586340000001	785.65805	-147.299091	806.831369	666.591316	-190.459173	904.796552	835.294709	-495.219468	1008.33088	745.756252	-475.551169	984.9023110000001	624.411536	-462.154872	851.18806	373.574435	-279.86829	806.910433	313.434189	-218.337626	777.726089	224.286632	-293.758866	969.929702	423.550184	-407.074824	887.689431	397.904165	-466.988592	804.420422	311.275261	-417.464871	603.644282	109.599941	-320.536832	835.196462	68.50575000000001	-332.658934	762.725614	48.361134	-238.100823	622.546622	306.867815	-414.391529	776.004201	128.903035	-417.646332	708.036664	167.92864	-502.486498	912.3761019999999	1507.819252	-502.992618	902.980184	1516.455893	-155.633041	951.8259420000001	1455.319375	-293.343827	833.2778939999999	1556.124103	-327.287864	884.279352	1414.436674	-74.78797900000001	886.685414	1323.336964	-73.398298	820.885822	1320.291109	-30.976842	813.746272	1189.718922	26.493335	773.524576	1170.471042	-45.266782	875.159855	1420.633977	-576.968813	864.308684	1349.087093	-570.802964	766.791824	1365.923952	-575.282998	720.629222	1215.158542	-639.938613	669.756357	1215.229563	-568.304188	919.86921	1171.313097	0.471181	1054.314601	1153.597673	-115.968786	1054.881755	1100.059177	-65.124559	807.04741	1173.934945	-609.715636	927.843525	1113.721611	-485.248865	913.444173	1058.70733	-528.811863	
223	1.983333	903.123956	1043.400963	-447.0814	861.895514	1060.914591	-188.125234	712.187192	1084.066564	-389.987253	698.171303	1085.266442	-310.160889	795.785047	892.784901	-145.042213	856.959445	786.7288140000001	-148.930647	797.024557	669.043179	-192.058679	906.383107	841.095461	-495.937502	1011.588325	753.35757	-475.699667	989.937484	631.820371	-462.546305	836.4379740000001	374.316983	-281.155189	791.294456	314.716253	-219.753086	761.721823	225.486847	-294.96457	980.677912	428.012617	-406.82719	899.9115420000001	398.287914	-466.533774	820.714161	307.901238	-416.216367	587.639489	111.14591	-321.023319	818.613198	68.322993	-332.775649	745.995708	48.670589	-238.661434	639.259005	294.583906	-413.601985	801.351773	124.387477	-416.660694	731.622336	159.550363	-501.304176	909.84923	1512.43608	-503.376921	904.642477	1522.063054	-156.612194	952.123679	1460.167678	-294.30992	832.892005	1560.074652	-326.968972	886.850287	1420.449904	-75.485831	891.115052	1329.275003	-74.62636500000001	826.3718679999999	1325.374095	-30.618857	820.7158010000001	1193.924406	25.249722	779.805017	1174.838615	-46.47748	870.492165	1427.241396	-577.727196	859.282151	1355.908914	-572.522871	761.775956	1374.30318	-575.509058	712.742067	1224.671206	-640.426367	662.477359	1225.147099	-568.449625	926.93325	1180.087871	-2.428546	1059.874926	1170.171265	-121.554989	1063.62201	1116.016122	-71.678828	799.388238	1183.698184	-610.8065340000001	921.463857	1124.673055	-489.309635	905.519536	1067.863359	-530.111751	
